# Blender v2.76 (sub 0) OBJ File: 'Deku Shield (Hi-Poly).blend'
# www.blender.org
mtllib Deku Shield (Hi-Poly).mtl
o ootdeku+kokirisheathedhipoly
v 0.907791 0.393707 -0.093615
v 1.244532 1.824569 -0.117750
v 0.406702 0.167297 0.140840
v 0.384866 0.037428 0.010970
v -0.197823 0.013293 -0.005120
v 0.032035 2.110741 0.000627
v -1.026459 1.767104 -0.055688
v 0.567602 1.536098 0.135093
v 0.602081 1.803882 -0.029255
v -0.669030 0.250046 -0.007418
v -0.293213 0.283375 0.145437
v 0.025139 1.906168 0.217842
vt 0.509139 0.920099
vt 0.190382 0.239615
vt 0.559301 0.121257
vt 0.866488 0.182583
vt 1.156053 0.824787
vt 0.508373 0.020725
vt 0.559728 0.120983
vt 0.312941 0.020967
vt 0.866209 0.182748
vt 0.755335 0.740234
vt 0.815190 0.879685
vt 0.542463 1.048978
vt 0.190052 0.239734
vt -0.022804 0.267011
vt -0.023241 1.007032
vt -0.023240 0.267159
vt 0.653532 0.030089
vt 0.966486 0.906729
vt 0.522653 1.053650
vt 0.185947 0.194102
vt 0.412282 0.030088
vt 0.023671 0.889255
vt 0.291972 0.891803
vt 0.844267 0.155509
vn -0.000800 -0.044400 0.999000
vn 0.455900 -0.092400 0.885200
vn 0.009800 -0.707900 0.706200
vn 0.543500 -0.637500 0.546100
vn 0.418600 0.435300 0.797100
vn 0.390800 0.663900 0.637600
vn 0.364100 -0.038900 0.930500
vn -0.275400 -0.540500 0.795000
vn -0.078300 -0.506400 0.858700
vn -0.264200 0.706300 0.656800
vn 0.101100 0.510900 0.853700
vn -0.371700 -0.058100 0.926500
vn -0.252500 0.006400 0.967600
vn 0.142400 -0.012600 0.989700
vn 0.054200 -0.003200 -0.998500
vn -0.218900 0.035100 -0.975100
vn -0.136300 -0.005800 -0.990700
vn 0.027600 -0.000300 -0.999600
vn -0.060500 -0.015300 -0.998000
vn -0.012600 -0.034800 -0.999300
usemtl Material.001
s off
f 12/1/1 11/2/1 3/3/1
f 3/3/2 1/4/2 2/5/2
f 4/6/3 3/7/3 5/8/3
f 3/7/4 4/6/4 1/9/4
f 8/10/5 9/11/5 12/1/5
f 12/1/6 9/11/6 6/12/6
f 3/3/7 2/5/7 8/10/7
f 11/13/8 10/14/8 5/8/8
f 5/8/9 3/7/9 11/13/9
f 12/1/10 6/12/10 7/15/10
f 8/10/11 2/5/11 9/11/11
f 7/15/12 10/16/12 11/2/12
f 7/15/13 11/2/13 12/1/13
f 12/1/14 3/3/14 8/10/14
usemtl Material.002
f 5/17/15 7/18/15 6/19/15
f 1/20/16 4/21/16 2/22/16
f 2/22/17 4/21/17 9/23/17
f 4/21/18 5/17/18 6/19/18
f 6/19/19 9/23/19 4/21/19
f 7/18/20 5/17/20 10/24/20
